<svg id="_x33_0" enable-background="new 0 0 64 64" height="512" viewBox="0 0 64 64" width="512" xmlns="http://www.w3.org/2000/svg"><g><path d="m18 19c.551 0 1 .448 1 1h2c0-1.654-1.346-3-3-3s-3 1.346-3 3h2c0-.552.449-1 1-1z"/><path d="m26 19c.551 0 1 .448 1 1h2c0-1.654-1.346-3-3-3s-3 1.346-3 3h2c0-.552.449-1 1-1z"/><path d="m26.898 24.47.051-.154-1.898-.631-.051.153c-.431 1.293-1.637 2.162-3 2.162s-2.569-.869-3-2.161l-.051-.154-1.898.631.052.155c.703 2.111 2.671 3.529 4.897 3.529s4.194-1.418 4.898-3.53z"/><path d="m51 32c0-1.13-.391-2.162-1.026-3h3.026v5l10.667-8-10.667-8v5h-3.026c.635-.838 1.026-1.87 1.026-3v-9h5l-8-10.667-8 10.667h5v8h-8.556c-.091-.156-.191-.304-.302-.446l.482-1.929c.25-.998.376-2.023.376-3.05 0-6.933-5.641-12.575-12.575-12.575h-14.807c-2.546 0-4.618 2.071-4.618 4.618v.764c0 1.432.669 2.698 1.696 3.546-1.094 1.274-1.696 2.875-1.696 4.572 0 1.879.732 3.646 2.061 4.975l.187.187c-.151.42-.248.866-.248 1.338 0 2.206 1.794 4 4 4h.764c.962 2.452 2.771 4.478 5.075 5.708l-.686 3.43-7.08 1.287c-2.334.425-4.436 1.679-5.919 3.531-1.389 1.736-2.154 3.918-2.154 6.142v17.902h42v-6l5 6.667 8-10.667h-5zm4-7v-3l5.333 4-5.333 4v-3h-23.792c.409-.625.752-1.295 1.028-2zm-22-4v-2c1.103 0 2 .897 2 2s-.897 2-2 2h-.191c.12-.65.191-1.316.191-2zm12 0c1.103 0 2-.897 2-2v-10h-3l4-5.333 4 5.333h-3v11c0 1.654-1.346 3-3 3h-9.556c.344-.591.556-1.268.556-2zm-34 2c-1.103 0-2-.897-2-2s.897-2 2-2v2c0 .684.071 1.35.191 2zm0-6.169v.169c-.994 0-1.892.377-2.592.979-.904-.942-1.408-2.17-1.408-3.479 0-1.345.524-2.609 1.475-3.561l.076-.076c.344.082.698.137 1.067.137h.146c1.76 0 3.343-.979 4.13-2.553l-1.789-.895c-.446.893-1.343 1.448-2.341 1.448h-.146c-1.444 0-2.618-1.175-2.618-2.618v-.764c0-1.443 1.174-2.618 2.618-2.618h14.807c5.831 0 10.575 4.744 10.575 10.575 0 .863-.106 1.726-.316 2.565l-.282 1.127c-.438-.165-.907-.267-1.402-.267 0-2.206-1.794-4-4-4h-9.513c-1.371 0-2.487-1.116-2.487-2.487 0-1.072.684-2.02 1.7-2.358l.616-.205-.632-1.898-.616.206c-1.835.61-3.068 2.32-3.068 4.255 0 .171.01.339.028.505l-1.115.669c-1.797 1.077-2.913 3.048-2.913 5.144zm2 4.169v-4.169c0-1.397.744-2.711 1.942-3.43l.771-.463c.8 1.24 2.193 2.062 3.774 2.062h9.513c1.103 0 2 .897 2 2v4c0 4.963-4.038 9-9 9s-9-4.037-9-9zm27.846 17.956c-1.483-1.853-3.585-3.106-5.919-3.53l-7.08-1.288-.227-1.138h17.38v20h-2v-7.902c0-2.224-.765-4.406-2.154-6.142zm-10.033 10.906-6.188 7.426 3.157-9.471 1.757-.502zm-19.813-12.755 1.554-.283 2.898 8.693-4.452-1.271zm16.192-1.056 2.266.412-1.517 4.551-4.119-2.942zm-6.345 8.949h2.306l1.153 6.919-2.306 6.918-2.306-6.919zm4.811 2.864-.638-3.827.549-2.259 1.71 1.222zm-1.843-7.339-.601 2.475h-2.428l-.601-2.475 1.815-1.296zm-5.384 1.253.549 2.259-.638 3.827-1.622-4.865zm-3.97 5.537 1.757.502 3.157 9.471-6.188-7.426zm14.087-1.798 2.897-8.692 1.555.283v7.138zm-6.548-13.517c1.142 0 2.244-.176 3.28-.5l.601 3.005-3.881 2.329-3.881-2.329.601-3.005c1.036.324 2.138.5 3.28.5zm-5.192 4.051 3.37 2.022-4.119 2.942-1.517-4.552zm-13.808 9.047c0-1.771.609-3.509 1.716-4.892 1.089-1.361 2.599-2.309 4.284-2.715v8.263l3.504 1.002-1.691 3.382 9.052 10.862h-10.865v-13h-2v13h-4zm38 15.902h-4v-13h-2v13h-10.865l9.052-10.862-1.691-3.382 3.504-1.002v-8.262c1.685.405 3.195 1.353 4.284 2.714 1.107 1.383 1.716 3.12 1.716 4.892zm11-6-4 5.333-4-5.333h3v-22c0-1.103-.897-2-2-2h-17.78l-.058-.292c.865-.462 1.657-1.041 2.365-1.708h16.473c1.654 0 3 1.346 3 3v23z"/></g></svg>